# xmcd
#
# Track frame offsets:
# 150
# 27150
# 72984
# 88149
#
# Disc length: 1624 seconds
#
#
# Revision: 0
# Processed by: cddbd v1.5.1PL2 Copyright (c) Steve Scherf et al.
# Submitted via: FreeRIP 2.944 
#
DISCID=2e065604
DTITLE=Eric Clapton - Live in Hyde Park 1996
DYEAR=2005
DGENRE=Blues
TTITLE0=Tearin' Us Apart (Live)
TTITLE1=Five Long Years (Live)
TTITLE2=I'm Tore Down (Live)
TTITLE3=Every day I Have The Blues (Live)
EXTD=Fan Club Edition
EXTT0=
EXTT1=
EXTT2=
EXTT3=
PLAYORDER=
